<svg xmlns="http://www.w3.org/2000/svg" viewBox="0 0 32 32">
  <rect width="32" height="32" rx="6" fill="#191724"/>
  <g transform="translate(16,16)">
    <path d="M0,0 C-2.2,-3.5 -1.4,-9.5 0,-12 C1.4,-9.5 2.2,-3.5 0,0Z" fill="#e0def4" opacity="0.9" transform="rotate(0)"/>
    <path d="M0,0 C-2.2,-3.5 -1.4,-9.5 0,-12 C1.4,-9.5 2.2,-3.5 0,0Z" fill="#e0def4" opacity="0.9" transform="rotate(36)"/>
    <path d="M0,0 C-2.2,-3.5 -1.4,-9.5 0,-12 C1.4,-9.5 2.2,-3.5 0,0Z" fill="#e0def4" opacity="0.9" transform="rotate(72)"/>
    <path d="M0,0 C-2.2,-3.5 -1.4,-9.5 0,-12 C1.4,-9.5 2.2,-3.5 0,0Z" fill="#e0def4" opacity="0.9" transform="rotate(108)"/>
    <path d="M0,0 C-2.2,-3.5 -1.4,-9.5 0,-12 C1.4,-9.5 2.2,-3.5 0,0Z" fill="#e0def4" opacity="0.9" transform="rotate(144)"/>
    <path d="M0,0 C-2.2,-3.5 -1.4,-9.5 0,-12 C1.4,-9.5 2.2,-3.5 0,0Z" fill="#e0def4" opacity="0.9" transform="rotate(180)"/>
    <path d="M0,0 C-2.2,-3.5 -1.4,-9.5 0,-12 C1.4,-9.5 2.2,-3.5 0,0Z" fill="#e0def4" opacity="0.9" transform="rotate(216)"/>
    <path d="M0,0 C-2.2,-3.5 -1.4,-9.5 0,-12 C1.4,-9.5 2.2,-3.5 0,0Z" fill="#e0def4" opacity="0.9" transform="rotate(252)"/>
    <path d="M0,0 C-2.2,-3.5 -1.4,-9.5 0,-12 C1.4,-9.5 2.2,-3.5 0,0Z" fill="#e0def4" opacity="0.9" transform="rotate(288)"/>
    <path d="M0,0 C-2.2,-3.5 -1.4,-9.5 0,-12 C1.4,-9.5 2.2,-3.5 0,0Z" fill="#e0def4" opacity="0.9" transform="rotate(324)"/>

  </g>
</svg>
