<svg xmlns="http://www.w3.org/2000/svg" viewBox="0 0 100 100"><defs><clipPath id="p0" clipPathUnits="userSpaceOnUse"><path clip-rule="evenodd" d="M-100,-100 H200 V200 H-100 Z M50,50 C49.94,35.86 64.05,24.98 72.34,19.26 C69.46,28.91 63.46,45.69 50,50 Z"></path></clipPath><clipPath id="p1" clipPathUnits="userSpaceOnUse"><path clip-rule="evenodd" d="M-100,-100 H200 V200 H-100 Z M50,50 C58.26,38.53 76.07,38.01 86.14,38.26 C78.14,44.37 63.43,54.43 50,50 Z"></path></clipPath><clipPath id="p2" clipPathUnits="userSpaceOnUse"><path clip-rule="evenodd" d="M-100,-100 H200 V200 H-100 Z M50,50 C63.43,45.57 78.14,55.63 86.14,61.74 C76.07,61.99 58.26,61.47 50,50 Z"></path></clipPath><clipPath id="p3" clipPathUnits="userSpaceOnUse"><path clip-rule="evenodd" d="M-100,-100 H200 V200 H-100 Z M50,50 C63.46,54.31 69.46,71.09 72.34,80.74 C64.05,75.02 49.94,64.14 50,50 Z"></path></clipPath><clipPath id="p4" clipPathUnits="userSpaceOnUse"><path clip-rule="evenodd" d="M-100,-100 H200 V200 H-100 Z M50,50 C58.36,61.4 53.34,78.5 50,88 C46.66,78.5 41.64,61.4 50,50 Z"></path></clipPath><clipPath id="p5" clipPathUnits="userSpaceOnUse"><path clip-rule="evenodd" d="M-100,-100 H200 V200 H-100 Z M50,50 C50.06,64.14 35.95,75.02 27.66,80.74 C30.54,71.09 36.54,54.31 50,50 Z"></path></clipPath><clipPath id="p6" clipPathUnits="userSpaceOnUse"><path clip-rule="evenodd" d="M-100,-100 H200 V200 H-100 Z M50,50 C41.74,61.47 23.93,61.99 13.86,61.74 C21.86,55.63 36.57,45.57 50,50 Z"></path></clipPath><clipPath id="p7" clipPathUnits="userSpaceOnUse"><path clip-rule="evenodd" d="M-100,-100 H200 V200 H-100 Z M50,50 C36.57,54.43 21.86,44.37 13.86,38.26 C23.93,38.01 41.74,38.53 50,50 Z"></path></clipPath><clipPath id="p8" clipPathUnits="userSpaceOnUse"><path clip-rule="evenodd" d="M-100,-100 H200 V200 H-100 Z M50,50 C36.54,45.69 30.54,28.91 27.66,19.26 C35.95,24.98 50.06,35.86 50,50 Z"></path></clipPath><clipPath id="p9" clipPathUnits="userSpaceOnUse"><path clip-rule="evenodd" d="M-100,-100 H200 V200 H-100 Z M50,50 C41.64,38.6 46.66,21.5 50,12 C53.34,21.5 58.36,38.6 50,50 Z"></path></clipPath></defs><rect width="100" height="100" rx="24" fill="#191724"></rect><g clip-path="url(#p0)"><path d="M50,50 C41.64,38.6 46.66,21.5 50,12 C53.34,21.5 58.36,38.6 50,50 Z" fill="#eb6f92"></path></g><g clip-path="url(#p1)"><path d="M50,50 C49.94,35.86 64.05,24.98 72.34,19.26 C69.46,28.91 63.46,45.69 50,50 Z" fill="#9ccfd8"></path></g><g clip-path="url(#p2)"><path d="M50,50 C58.26,38.53 76.07,38.01 86.14,38.26 C78.14,44.37 63.43,54.43 50,50 Z" fill="#f6c177"></path></g><g clip-path="url(#p3)"><path d="M50,50 C63.43,45.57 78.14,55.63 86.14,61.74 C76.07,61.99 58.26,61.47 50,50 Z" fill="#31748f"></path></g><g clip-path="url(#p4)"><path d="M50,50 C63.46,54.31 69.46,71.09 72.34,80.74 C64.05,75.02 49.94,64.14 50,50 Z" fill="#c4a7e7"></path></g><g clip-path="url(#p5)"><path d="M50,50 C58.36,61.4 53.34,78.5 50,88 C46.66,78.5 41.64,61.4 50,50 Z" fill="#eb6f92"></path></g><g clip-path="url(#p6)"><path d="M50,50 C50.06,64.14 35.95,75.02 27.66,80.74 C30.54,71.09 36.54,54.31 50,50 Z" fill="#9ccfd8"></path></g><g clip-path="url(#p7)"><path d="M50,50 C41.74,61.47 23.93,61.99 13.86,61.74 C21.86,55.63 36.57,45.57 50,50 Z" fill="#f6c177"></path></g><g clip-path="url(#p8)"><path d="M50,50 C36.57,54.43 21.86,44.37 13.86,38.26 C23.93,38.01 41.74,38.53 50,50 Z" fill="#31748f"></path></g><g clip-path="url(#p9)"><path d="M50,50 C36.54,45.69 30.54,28.91 27.66,19.26 C35.95,24.98 50.06,35.86 50,50 Z" fill="#c4a7e7"></path></g><g clip-path="url(#p0)"><path d="M50,50 C41.64,38.6 46.66,21.5 50,12 C53.34,21.5 58.36,38.6 50,50 Z" fill="none" stroke="#191724" stroke-width="0.5" stroke-linejoin="round"></path></g><g clip-path="url(#p1)"><path d="M50,50 C49.94,35.86 64.05,24.98 72.34,19.26 C69.46,28.91 63.46,45.69 50,50 Z" fill="none" stroke="#191724" stroke-width="0.5" stroke-linejoin="round"></path></g><g clip-path="url(#p2)"><path d="M50,50 C58.26,38.53 76.07,38.01 86.14,38.26 C78.14,44.37 63.43,54.43 50,50 Z" fill="none" stroke="#191724" stroke-width="0.5" stroke-linejoin="round"></path></g><g clip-path="url(#p3)"><path d="M50,50 C63.43,45.57 78.14,55.63 86.14,61.74 C76.07,61.99 58.26,61.47 50,50 Z" fill="none" stroke="#191724" stroke-width="0.5" stroke-linejoin="round"></path></g><g clip-path="url(#p4)"><path d="M50,50 C63.46,54.31 69.46,71.09 72.34,80.74 C64.05,75.02 49.94,64.14 50,50 Z" fill="none" stroke="#191724" stroke-width="0.5" stroke-linejoin="round"></path></g><g clip-path="url(#p5)"><path d="M50,50 C58.36,61.4 53.34,78.5 50,88 C46.66,78.5 41.64,61.4 50,50 Z" fill="none" stroke="#191724" stroke-width="0.5" stroke-linejoin="round"></path></g><g clip-path="url(#p6)"><path d="M50,50 C50.06,64.14 35.95,75.02 27.66,80.74 C30.54,71.09 36.54,54.31 50,50 Z" fill="none" stroke="#191724" stroke-width="0.5" stroke-linejoin="round"></path></g><g clip-path="url(#p7)"><path d="M50,50 C41.74,61.47 23.93,61.99 13.86,61.74 C21.86,55.63 36.57,45.57 50,50 Z" fill="none" stroke="#191724" stroke-width="0.5" stroke-linejoin="round"></path></g><g clip-path="url(#p8)"><path d="M50,50 C36.57,54.43 21.86,44.37 13.86,38.26 C23.93,38.01 41.74,38.53 50,50 Z" fill="none" stroke="#191724" stroke-width="0.5" stroke-linejoin="round"></path></g><g clip-path="url(#p9)"><path d="M50,50 C36.54,45.69 30.54,28.91 27.66,19.26 C35.95,24.98 50.06,35.86 50,50 Z" fill="none" stroke="#191724" stroke-width="0.5" stroke-linejoin="round"></path></g><circle cx="50" cy="50" r="3" fill="#191724"></circle></svg>